Coordinates
version=1
nRows=7
nColumns=40
inDegrees=yes

Units are S.I. units (second, meters, Newtons, ...)
If the header above contains a line with 'inDegrees', this indicates whether rotational values are in degrees (yes) or radians (no).

endheader
time	pelvis_tilt	pelvis_list	pelvis_rotation	pelvis_tx	pelvis_ty	pelvis_tz	hip_flexion_r	hip_adduction_r	hip_rotation_r	knee_angle_r	knee_angle_r_beta	ankle_angle_r	subtalar_angle_r	mtp_angle_r	hip_flexion_l	hip_adduction_l	hip_rotation_l	knee_angle_l	knee_angle_l_beta	ankle_angle_l	subtalar_angle_l	mtp_angle_l	lumbar_extension	lumbar_bending	lumbar_rotation	arm_flex_r	arm_add_r	arm_rot_r	elbow_flex_r	pro_sup_r	wrist_flex_r	wrist_dev_r	arm_flex_l	arm_add_l	arm_rot_l	elbow_flex_l	pro_sup_l	wrist_flex_l	wrist_dev_l
      3.00000000	      6.31411092	     -6.26079964	     -6.59742662	     -0.25592346	      1.06150941	     -0.99415182	     -1.30431410	     -3.63376410	     -0.61960433	     76.10121380	      1.32821675	    -17.62411177	      0.00000000	      0.00000000	     -1.09840646	     -2.10073286	    -11.71797231	     18.40238966	      0.32118229	     -0.62236840	      0.00000000	      0.00000000	    -13.49283169	      2.54065249	      9.48257161	     86.77823822	    -22.87891923	     48.07876990	     38.92080256	     85.73173004	      0.00000000	      0.00000000	     87.36773439	    -28.92655633	     56.14353419	     50.48237055	     86.37485927	      0.00000000	      0.00000000
      3.00500000	      6.31187774	     -6.25367802	     -6.57980122	     -0.25600673	      1.06144055	     -0.99419143	     -1.31691010	     -3.63719108	     -0.63465146	     76.06993225	      1.32767078	    -17.64215478	      0.00000000	      0.00000000	     -1.06644570	     -2.08654817	    -11.60073637	     18.44616757	      0.32194636	     -0.57234251	      0.00000000	      0.00000000	    -13.49517859	      2.53996121	      9.43902092	     86.73411883	    -22.79906595	     47.78045109	     38.84957135	     85.95508097	      0.00000000	      0.00000000	     87.39669509	    -28.97110158	     56.22312365	     50.49782249	     86.34953712	      0.00000000	      0.00000000
      3.01000000	      6.34038988	     -6.24138595	     -6.56542952	     -0.25610306	      1.06138438	     -0.99428614	     -1.34565947	     -3.67689784	     -0.67186133	     76.08702158	      1.32796904	    -17.61211880	      0.00000000	      0.00000000	     -1.08403157	     -2.05526490	    -11.51647072	     18.44267985	      0.32188549	     -0.55143718	      0.00000000	      0.00000000	    -13.53772715	      2.53728471	      9.43176113	     86.76434378	    -22.85884025	     47.91723006	     38.93468174	     85.80907910	      0.00000000	      0.00000000	     87.38742932	    -28.97985169	     56.16971323	     50.50140287	     86.34329157	      0.00000000	      0.00000000
      3.01500000	      6.27477905	     -6.23662073	     -6.59887044	     -0.25629559	      1.06122134	     -0.99425539	     -1.25690246	     -3.66549524	     -0.62673118	     76.09319999	      1.32807688	    -17.65786483	      0.00000000	      0.00000000	     -0.94857892	     -2.07507791	    -11.55817113	     18.55805923	      0.32389924	     -0.50605952	      0.00000000	      0.00000000	    -13.48798236	      2.53538900	      9.46062905	     86.76843640	    -22.84577577	     47.81050092	     38.88484673	     85.97201744	      0.00000000	      0.00000000	     87.41454505	    -28.97095128	     56.19502055	     50.47444160	     86.35566945	      0.00000000	      0.00000000
      3.02000000	      6.30556218	     -6.23102414	     -6.59755696	     -0.25658187	      1.06113719	     -0.99434019	     -1.27273355	     -3.67730730	     -0.62160228	     76.10942986	      1.32836014	    -17.64991384	      0.00000000	      0.00000000	     -0.93408517	     -2.06649151	    -11.54808109	     18.61851434	      0.32495438	     -0.47405752	      0.00000000	      0.00000000	    -13.55622311	      2.53276594	      9.47387044	     86.82869810	    -22.87681176	     47.86532676	     38.90000838	     85.96329467	      0.00000000	      0.00000000	     87.46518807	    -28.96237871	     56.20294956	     50.45071778	     86.35262479	      0.00000000	      0.00000000
      3.02500000	      6.31136693	     -6.23337887	     -6.62639708	     -0.25668903	      1.06103855	     -0.99431905	     -1.27649599	     -3.68072205	     -0.60068492	     76.10897386	      1.32835218	    -17.60528589	      0.00000000	      0.00000000	     -0.91110623	     -2.07023745	    -11.54455351	     18.67894724	      0.32600913	     -0.43236739	      0.00000000	      0.00000000	    -13.57767828	      2.53800819	      9.51641545	     86.89895728	    -22.94384014	     48.12810279	     38.94351329	     85.85162159	      0.00000000	      0.00000000	     87.43877716	    -28.97550452	     56.09013011	     50.45155740	     86.33109443	      0.00000000	      0.00000000
      3.03000000	      6.29236490	     -6.20528405	     -6.63940719	     -0.25679353	      1.06091854	     -0.99435431	     -1.24814271	     -3.71243886	     -0.58656563	     76.12543325	      1.32863945	    -17.57783823	      0.00000000	      0.00000000	     -0.85868112	     -2.04372028	    -11.55813388	     18.72096615	      0.32674250	     -0.40239917	      0.00000000	      0.00000000	    -13.56655528	      2.51286788	      9.49982322	     86.87090644	    -22.90516227	     47.95285975	     38.92038491	     85.91907708	      0.00000000	      0.00000000	     87.47223156	    -29.02021148	     56.16432898	     50.45074207	     86.37331597	      0.00000000	      0.00000000
